# xmcd CD database file
#
# Track frame offsets:
#	150
#	18290
#	32275
#	48583
#	66658
#	82350
#	94918
#	111048
#	127103
#	143040
#	162040
#	178308
#
# Disc length: 2575 seconds
#
# Revision: 5
# Processed by: cddbd v1.5.2PL0 Copyright (c) Steve Scherf et al.
# Submitted via: CDex 1.70beta2
#
DISCID=a90a0d0c
DTITLE=John Denver - The Essential John Denver - Disc 2
DYEAR=1975
DGENRE=Country
TTITLE0=Windsong
TTITLE1=Cowboy's Delight
TTITLE2=Spirit
TTITLE3=Looking For Space
TTITLE4=Shipmates And Cheyenne
TTITLE5=Late Nite Radio
TTITLE6=Love Is Everywhere
TTITLE7=Two Shots
TTITLE8=I'm Sorry
TTITLE9=Fly Away
TTITLE10=Calypso
TTITLE11=Song Of Wyoming
EXTD=YEAR: 1975
EXTT0=
EXTT1=
EXTT2=
EXTT3=
EXTT4=
EXTT5=
EXTT6=
EXTT7=
EXTT8=
EXTT9=
EXTT10=
EXTT11=
PLAYORDER=
